<svg width="251" height="251" viewBox="0 0 251 251" fill="none" xmlns="http://www.w3.org/2000/svg">
<rect width="251" height="251" fill="white"/>
<path d="M152.049 50.8922H109.267L131.865 75.4759V135.749H175.773V70.9169L152.049 50.8922ZM139.09 104.988C139.08 102.733 139.073 100.479 139.097 98.2248C139.1 97.9071 139.276 97.5914 139.372 97.2748H147.924V105.963C147.77 106.059 147.618 106.238 147.464 106.238C144.89 106.247 142.315 106.233 139.74 106.22C139.669 106.219 139.597 106.157 139.526 106.123C139.422 106.018 139.318 105.913 139.214 105.807C139.171 105.534 139.091 105.261 139.09 104.988ZM147.974 129.445H139.565C139.498 129.357 139.431 129.27 139.364 129.183C139.37 126.421 139.377 123.66 139.383 120.898L139.571 120.718H147.974L147.974 129.445ZM159.431 117.681H150.893C150.795 117.528 150.612 117.375 150.612 117.222C150.606 114.504 150.622 111.785 150.638 109.066C150.639 108.997 150.708 108.928 150.745 108.859C150.813 108.819 150.88 108.746 150.947 108.745C153.623 108.726 156.299 108.707 158.974 108.711C159.127 108.711 159.279 108.895 159.431 108.994L159.431 117.681ZM170.525 129.532C168.247 129.522 165.968 129.514 163.69 129.499C163.252 129.496 162.814 129.464 162.376 129.445C162.309 129.357 162.242 129.27 162.175 129.183C162.181 126.421 162.187 123.66 162.193 120.898L162.381 120.718C165.099 120.714 167.818 120.709 170.536 120.705C170.612 120.768 170.688 120.831 170.764 120.895C170.769 123.741 170.774 126.586 170.778 129.432C170.694 129.465 170.609 129.499 170.525 129.532Z" fill="#005BFF"/>
<mask id="mask0_253_583" style="mask-type:luminance" maskUnits="userSpaceOnUse" x="109" y="50" width="67" height="86">
<path d="M152.048 50.8922H109.266L131.864 75.4759V135.749H175.772V70.9169L152.048 50.8922ZM139.089 104.988C139.079 102.733 139.072 100.479 139.096 98.2248C139.099 97.9071 139.275 97.5914 139.371 97.2748H147.923V105.963C147.769 106.059 147.617 106.238 147.463 106.238C144.889 106.247 142.314 106.233 139.739 106.22C139.668 106.219 139.596 106.157 139.525 106.123C139.421 106.018 139.317 105.913 139.214 105.807C139.17 105.534 139.09 105.261 139.089 104.988ZM147.973 129.445H139.564C139.497 129.357 139.43 129.27 139.363 129.183C139.369 126.421 139.376 123.66 139.382 120.898L139.57 120.718H147.973L147.973 129.445ZM159.43 117.681H150.892C150.794 117.528 150.611 117.375 150.611 117.222C150.605 114.504 150.621 111.785 150.637 109.066C150.638 108.997 150.707 108.928 150.744 108.859C150.812 108.819 150.879 108.746 150.946 108.745C153.622 108.726 156.298 108.707 158.973 108.711C159.126 108.711 159.278 108.895 159.43 108.994L159.43 117.681ZM170.524 129.532C168.246 129.522 165.967 129.514 163.689 129.499C163.251 129.496 162.813 129.464 162.375 129.445C162.308 129.357 162.241 129.27 162.174 129.183C162.18 126.421 162.186 123.66 162.192 120.898L162.38 120.718C165.098 120.714 167.817 120.709 170.535 120.705C170.611 120.768 170.687 120.831 170.763 120.895C170.768 123.741 170.773 126.586 170.777 129.432C170.693 129.465 170.608 129.499 170.524 129.532Z" fill="white"/>
</mask>
<g mask="url(#mask0_253_583)">
<path d="M167.244 105.358L271.87 86.3224C281.801 84.5156 289.03 75.7351 289.03 65.4806V50.51C289.03 46.2173 284.794 43.2595 280.852 44.7994L169.311 88.3721C165.596 89.8234 163.146 93.4527 163.151 97.498L163.156 101.885C163.158 104.083 165.115 105.746 167.244 105.358Z" fill="#FF0000"/>
</g>
<path d="M183.391 110.855C183.368 102.405 183.359 93.9558 183.334 85.5066C183.327 83.1522 183.281 80.798 183.252 78.4437C183.443 77.1934 183.008 76.0816 182.555 74.9563C181.6 72.5823 180.257 70.4809 178.448 68.6896C177.457 67.6915 176.445 66.7129 175.479 65.6905C174.321 64.4663 173.232 63.1751 172.06 61.9656C169.909 59.7441 167.691 57.5882 165.552 55.3539C163.691 53.4097 161.906 51.3912 160.078 49.4139C159.59 48.8858 159.07 48.3879 158.565 47.8761C158.027 47.479 157.489 47.0819 156.952 46.6848C156.519 46.4559 156.086 46.227 155.653 45.9981C154.692 45.6873 153.732 45.3765 152.771 45.0658C152.334 45.0437 151.896 45.0025 151.459 45.0024C134.806 44.9992 118.153 44.9992 101.5 45.0024C101.063 45.0025 100.625 45.0427 100.188 45.0643C99.2272 45.3809 98.2668 45.6976 97.3065 46.0142C97.1468 46.091 96.987 46.1678 96.8272 46.2446C96.0969 46.5048 95.3214 46.6913 94.9059 47.4636C94.3079 48.034 93.7099 48.6044 93.112 49.1748C93.0707 49.2203 93.0293 49.2659 92.988 49.3114C92.1319 50.1672 91.2759 51.0231 90.4198 51.8788C89.422 52.9746 88.4243 54.0703 87.4265 55.1661C87.0379 55.5397 86.6389 55.9029 86.2624 56.2889C85.0828 57.498 83.9119 58.7157 82.7376 59.9302C81.7393 61.0257 80.7412 62.1213 79.743 63.2168C78.2495 64.7197 76.7559 66.2226 75.2624 67.7254C74.7891 68.3057 74.3158 68.8859 73.8426 69.4668C73.7594 69.5621 73.6762 69.6579 73.5931 69.7539C71.9586 71.6705 70.5517 73.7174 69.9905 76.2485C69.9175 76.5614 69.8443 76.8744 69.7712 77.1874C69.7348 77.6061 69.6986 78.0249 69.6623 78.4436C69.6315 78.9663 69.5739 79.4891 69.5738 80.0118C69.569 96.8581 69.5712 113.704 69.5666 130.551C69.5663 131.56 69.5187 132.57 69.4932 133.579C69.5628 133.985 69.6323 134.39 69.7019 134.796C69.9561 135.856 70.2102 136.916 70.4642 137.975C70.5273 138.056 70.5904 138.136 70.6534 138.216C70.7232 138.301 70.793 138.385 70.8627 138.47C71.2618 139.062 71.6609 139.653 72.06 140.244C72.303 140.483 72.5458 140.722 72.7887 140.96C73.1121 141.267 73.4354 141.574 73.7587 141.881C74.0054 142.029 74.252 142.177 74.4986 142.325C74.8972 142.502 75.2959 142.679 75.6946 142.856C76.0963 143.002 76.4981 143.149 76.8998 143.295C77.1405 143.302 77.3811 143.309 77.6218 143.316C77.6713 143.38 77.7208 143.443 77.7703 143.507C77.8002 143.453 77.8301 143.4 77.86 143.347C77.7801 143.255 77.7001 143.164 77.6202 143.072L77.86 143.347C78.5393 143.358 79.2187 143.377 79.8981 143.378C88.5727 143.38 97.2472 143.379 105.922 143.379C108.04 143.379 110.159 143.376 112.278 143.38C113.085 143.382 113.843 143.248 114.453 142.649C114.659 142.47 114.866 142.29 115.072 142.111L115.271 141.877C115.44 141.467 115.609 141.057 115.777 140.647C116.148 140.005 116.123 139.351 115.827 138.691C115.787 138.532 115.746 138.374 115.705 138.215C115.342 137.334 114.901 136.529 113.874 136.307C113.487 136.165 113.101 136.024 112.714 135.882C111.718 135.86 110.723 135.819 109.727 135.818C100.539 135.813 91.3508 135.798 82.1628 135.829C80.1467 135.836 78.4415 135.405 77.5051 133.375C77.4926 133.348 77.4339 133.343 77.3969 133.328C77.3145 132.923 77.232 132.517 77.1495 132.112C77.2023 114.467 77.255 96.8213 77.3078 79.1761C77.3629 78.1625 77.7175 77.2443 78.1972 76.3722C78.4884 75.8429 78.8137 75.3329 79.1237 74.8143C79.8167 74.0709 80.5098 73.3276 81.2029 72.5842C82.182 71.5604 83.161 70.5367 84.1401 69.5128C84.6681 68.9265 85.1811 68.3253 85.7274 67.757C86.77 66.6725 87.8317 65.6067 88.8855 64.5332C89.8647 63.509 90.8439 62.4849 91.8231 61.4609C92.3257 60.9011 92.8069 60.3194 93.3352 59.7858C94.8274 58.2784 96.3302 56.7813 97.8493 55.3018C98.2212 54.9397 98.6587 54.6419 99.0873 54.3462C100.868 53.1183 102.632 53.2965 104.174 54.8529C106.515 57.216 108.854 59.5826 111.193 61.9476C112.189 63.0469 113.184 64.1461 114.179 65.2452C114.609 65.6853 115.035 66.1284 115.468 66.5649C116.282 67.3859 117.1 68.2032 117.917 69.0221C118.665 69.88 119.414 70.7379 120.162 71.5958C120.51 71.9448 120.857 72.2944 121.205 72.6427C121.789 73.2263 122.373 73.8091 122.958 74.3922C123.37 74.9545 123.783 75.5167 124.196 76.0789C124.27 76.2646 124.346 76.4497 124.419 76.636C124.665 77.2628 125.03 77.8719 125.125 78.5217C125.249 79.3666 125.159 80.244 125.159 81.1074C125.159 101.283 125.159 121.458 125.161 141.633C125.161 142.119 125.186 142.605 125.199 143.092C125.266 143.169 125.333 143.247 125.4 143.325C125.558 143.343 125.716 143.376 125.874 143.376C141.972 143.378 158.069 143.39 174.166 143.354C175.279 143.351 176.392 142.999 177.505 142.809C177.587 142.742 177.668 142.675 177.749 142.608C178.146 142.412 178.543 142.216 178.941 142.02C179.331 142.164 179.299 141.821 179.389 141.619C179.561 141.525 179.734 141.431 179.907 141.338C179.982 141.271 180.057 141.205 180.132 141.139C181.174 140.274 182.017 139.226 182.466 137.947C183.144 136.014 183.493 134.012 183.477 131.936C183.422 124.909 183.41 117.882 183.391 110.855ZM172.678 135.699C172.12 135.716 171.562 135.747 171.004 135.747C159.313 135.75 147.622 135.754 135.931 135.74C134.9 135.738 133.869 135.605 132.838 135.533C132.843 135.33 132.853 135.127 132.853 134.924C132.854 116.178 132.854 97.4318 132.852 78.6855C132.852 78.3614 132.83 78.0374 132.817 77.7133C132.431 74.5594 130.801 72.0133 128.852 69.6785C127.097 67.5776 125.222 65.5763 123.343 63.5881C121.113 61.2298 118.812 58.9404 116.558 56.6051C115.524 55.5339 114.528 54.4255 113.519 53.3299C113.421 53.2244 113.353 53.0906 113.155 52.7959H114.615C126.727 52.7959 138.84 52.8189 150.952 52.7644C152.334 52.7581 153.317 53.2635 154.208 54.2005C156.511 56.6233 158.816 59.0443 161.122 61.4653C163.621 64.0906 166.122 66.7153 168.622 69.3397C169.898 70.6783 171.174 72.0157 172.451 73.3536C172.95 73.9664 173.457 74.5732 173.947 75.1934C174.714 76.1635 175.392 77.1843 175.616 78.4436C175.61 82.7035 175.598 86.9633 175.599 91.2231C175.601 102.665 175.601 114.106 175.621 125.548C175.625 127.733 175.72 129.917 175.773 132.102C175.773 132.102 175.773 132.102 175.773 132.102C175.425 133.908 174.432 135.142 172.678 135.699Z" fill="#0053CC"/>
<path d="M99.321 172.068C104.716 172.068 108.932 176.354 108.932 183.034C108.932 189.714 104.716 194.154 99.321 194.154C96.0165 194.154 93.6616 192.494 92.3702 190.756V204H87.0518V172.415H92.3702V175.505C93.6235 173.69 96.0546 172.068 99.321 172.068ZM97.9159 176.817C95.0668 176.817 92.3702 179.057 92.3702 183.111C92.3702 187.165 95.0668 189.405 97.9159 189.405C100.802 189.405 103.5 187.088 103.5 183.034C103.5 178.979 100.802 176.817 97.9159 176.817Z" fill="#005BFF"/>
<path d="M116.609 193.805H111.291V172.414H116.609V175.735C117.938 173.534 120.142 172.105 123.067 172.105V177.782H121.662C118.508 177.782 116.609 179.017 116.609 183.148V193.805Z" fill="#005BFF"/>
<path d="M135.97 194.154C129.893 194.154 125.296 189.829 125.296 183.111C125.296 176.354 130.044 172.068 136.122 172.068C142.2 172.068 146.948 176.354 146.948 183.111C146.948 189.829 142.086 194.154 135.97 194.154ZM135.97 189.443C138.781 189.443 141.478 187.358 141.478 183.111C141.478 178.825 138.857 176.779 136.046 176.779C133.235 176.779 130.69 178.825 130.69 183.111C130.69 187.358 133.121 189.443 135.97 189.443Z" fill="#005BFF"/>
<path d="M161.615 172.068C167.01 172.068 171.226 176.354 171.226 183.034C171.226 189.714 167.01 194.154 161.615 194.154C158.311 194.154 155.956 192.494 154.665 190.756V204H149.346V172.415H154.665V175.505C155.918 173.69 158.349 172.068 161.615 172.068ZM160.21 176.817C157.361 176.817 154.665 179.057 154.665 183.111C154.665 187.165 157.361 189.405 160.21 189.405C163.097 189.405 165.794 187.088 165.794 183.034C165.794 178.979 163.097 176.817 160.21 176.817Z" fill="#005BFF"/>
<path d="M183.529 194.154C177.414 194.154 172.969 189.829 172.969 183.111C172.969 176.354 177.299 172.068 183.529 172.068C189.607 172.068 193.899 176.276 193.899 182.647C193.899 183.343 193.862 184.038 193.747 184.732H178.363C178.629 187.899 180.756 189.675 183.415 189.675C185.694 189.675 186.948 188.517 187.632 187.088H193.367C192.228 191.026 188.733 194.154 183.529 194.154ZM178.401 181.103H188.392C188.315 178.284 186.112 176.508 183.377 176.508C180.832 176.508 178.819 178.169 178.401 181.103Z" fill="#005BFF"/>
<path d="M201.581 193.805H196.263V172.414H201.581V175.735C202.91 173.534 205.114 172.105 208.038 172.105V177.782H206.633C203.48 177.782 201.581 179.017 201.581 183.148V193.805Z" fill="#005BFF"/>
<path d="M212.433 176.855H209.925V172.415H212.433V167.125H217.789V172.415H222.499V176.855H217.789V187.203C217.789 188.632 218.358 189.25 220.03 189.25H222.499V193.806H219.156C215.129 193.806 212.433 192.068 212.433 187.165V176.855Z" fill="#005BFF"/>
<path d="M224.252 166.699C224.252 164.922 225.62 163.532 227.519 163.532C229.38 163.532 230.786 164.922 230.786 166.699C230.786 168.475 229.38 169.865 227.519 169.865C225.62 169.865 224.252 168.475 224.252 166.699ZM224.822 172.413H230.14V193.804H224.822V172.413Z" fill="#005BFF"/>
<path d="M33.5304 171.818C31.1558 171.818 29.1252 172.49 27.483 173.817V164.297H22V193.727H27.483V192.172C29.1252 193.498 31.1558 194.17 33.5304 194.17C36.4361 194.17 39.1203 193.022 41.088 190.938C43.0453 188.866 44.1232 186.045 44.1232 182.994C44.1232 179.944 43.0453 177.123 41.088 175.05C39.1201 172.966 36.436 171.818 33.5304 171.818ZM38.6401 182.994C38.6401 186.212 36.1897 188.733 33.0615 188.733C29.9334 188.733 27.483 186.212 27.483 182.994C27.483 179.776 29.9334 177.256 33.0615 177.256C36.1897 177.256 38.6401 179.776 38.6401 182.994Z" fill="#125EFA"/>
<path d="M53.1978 166.409H51.4704L47.7148 169.081V172.832L44.1323 175.725V177.666H47.7148V185.957C47.7148 190.793 50.9831 194.172 55.6626 194.172C56.6731 194.172 57.6119 194.013 58.6167 193.673L59.3586 193.422V188.095L57.9704 188.506C57.2214 188.728 56.5322 188.836 55.8635 188.836C55.1316 188.836 54.4972 188.648 54.0833 188.312C53.4875 187.803 53.1978 187.022 53.1978 185.923V177.666H59.3586V172.263H53.1978L53.1978 166.409Z" fill="#125EFA"/>
<path d="M77.0761 173.063C75.7019 172.226 74.1185 171.819 72.2361 171.819C70.3181 171.819 68.6012 172.318 67.227 173.27V172.261H61.7437V193.728H67.227V181.803C67.227 178.763 68.6869 177.222 71.5666 177.222C73.9203 177.222 75.2703 178.42 75.2703 180.51V193.728H80.7533V180.17C80.7533 176.994 79.4473 174.47 77.0761 173.063Z" fill="#125EFA"/>
<path d="M62.3606 169.827L78.1309 166.958C79.6277 166.685 80.7174 165.362 80.7174 163.816V161.56C80.7174 160.913 80.0789 160.467 79.4847 160.699L62.6722 167.267C62.1122 167.485 61.743 168.032 61.7437 168.642L61.7444 169.303C61.7448 169.635 62.0397 169.885 62.3606 169.827Z" fill="#FF0000"/>
<mask id="mask1_253_583" style="mask-type:luminance" maskUnits="userSpaceOnUse" x="87" y="163" width="144" height="41">
<path d="M99.321 172.066C104.716 172.066 108.932 176.352 108.932 183.032C108.932 189.712 104.716 194.152 99.321 194.152C96.0165 194.152 93.6616 192.492 92.3702 190.754V203.998H87.0518V172.414H92.3702V175.503C93.6235 173.688 96.0546 172.066 99.321 172.066ZM97.9159 176.816C95.0668 176.816 92.3702 179.055 92.3702 183.109C92.3702 187.163 95.0668 189.403 97.9159 189.403C100.802 189.403 103.5 187.086 103.5 183.032C103.5 178.978 100.802 176.816 97.9159 176.816ZM116.61 193.805H111.292V172.414H116.61V175.734C117.939 173.533 120.143 172.105 123.068 172.105V177.781H121.662C118.509 177.781 116.61 179.016 116.61 183.148V193.805ZM135.972 194.152C129.895 194.152 125.298 189.828 125.298 183.109C125.298 176.352 130.046 172.066 136.124 172.066C142.202 172.066 146.95 176.352 146.95 183.109C146.95 189.828 142.088 194.152 135.972 194.152ZM135.972 189.442C138.783 189.442 141.48 187.357 141.48 183.109C141.48 178.823 138.859 176.777 136.048 176.777C133.237 176.777 130.692 178.823 130.692 183.109C130.692 187.357 133.123 189.442 135.972 189.442ZM161.617 172.066C167.012 172.066 171.228 176.352 171.228 183.032C171.228 189.712 167.012 194.152 161.617 194.152C158.313 194.152 155.958 192.492 154.666 190.754V203.998H149.348V172.414H154.666V175.503C155.92 173.688 158.351 172.066 161.617 172.066ZM160.212 176.816C157.363 176.816 154.666 179.055 154.666 183.109C154.666 187.163 157.363 189.403 160.212 189.403C163.099 189.403 165.796 187.086 165.796 183.032C165.796 178.978 163.099 176.816 160.212 176.816ZM183.533 194.152C177.417 194.152 172.972 189.828 172.972 183.109C172.972 176.352 177.303 172.066 183.533 172.066C189.61 172.066 193.902 176.275 193.902 182.646C193.902 183.341 193.865 184.036 193.751 184.731H178.366C178.632 187.897 180.76 189.673 183.418 189.673C185.698 189.673 186.952 188.515 187.635 187.086H193.371C192.231 191.025 188.737 194.152 183.533 194.152ZM178.404 181.101H188.395C188.319 178.283 186.116 176.507 183.381 176.507C180.835 176.507 178.822 178.167 178.404 181.101ZM201.582 193.805H196.263V172.414H201.582V175.734C202.91 173.533 205.114 172.105 208.039 172.105V177.781H206.634C203.48 177.781 201.582 179.016 201.582 183.148V193.805ZM212.435 176.854H209.927V172.414H212.435V167.124H217.791V172.414H222.501V176.854H217.791V187.202C217.791 188.631 218.36 189.248 220.032 189.248H222.501V193.805H219.158C215.131 193.805 212.435 192.067 212.435 187.163V176.854ZM224.254 166.699C224.254 164.923 225.621 163.533 227.521 163.533C229.382 163.533 230.787 164.923 230.787 166.699C230.787 168.475 229.382 169.865 227.521 169.865C225.621 169.865 224.254 168.475 224.254 166.699ZM224.824 172.414H230.142V193.805H224.824V172.414Z" fill="white"/>
</mask>
<g mask="url(#mask1_253_583)">
<path d="M89.5206 195.12L217.94 184.154C230.129 183.113 239.832 173.343 240.972 160.964L242.636 142.892C243.113 137.709 238.328 133.652 233.398 135.059L93.9035 174.851C89.2576 176.177 85.8968 180.277 85.4529 185.161L84.9714 190.457C84.7301 193.111 86.9072 195.343 89.5206 195.12Z" fill="#FF0000"/>
</g>
</svg>
